<?xml version="1.0" encoding="UTF-8"?>
<svg id="Layer_2" data-name="Layer 2" xmlns="http://www.w3.org/2000/svg" viewBox="0 0 778.22 778.22">
  <defs>
    <style>
      .cls-1 {
        fill: #dc186d;
      }

      .cls-2 {
        fill: #d58514;
      }

      .cls-3 {
        fill: #894af4;
      }

      .cls-4 {
        fill: #2ebad5;
      }

      .cls-5 {
        fill: #0b1121;
      }

      .cls-6 {
        fill: #0d1535;
      }
    </style>
  </defs>
  <g id="Layer_1-2" data-name="Layer 1">
    <g>
      <path class="cls-5" d="m778.22,389.11c0,82.01-25.37,158.09-68.69,220.82-58.45,84.67-149.61,145.03-255.21,162.84-.01.01-.03.01-.04.01-21.19,3.58-42.96,5.44-65.17,5.44-41.41,0-81.31-6.47-118.74-18.45-39.56-12.66-76.36-31.48-109.28-55.33-.03-.02-.06-.04-.08-.06-33.12-24-62.31-53.09-86.42-86.13-.01-.01-.02-.02-.03-.03-17.63-24.17-32.54-50.44-44.28-78.38,0,0-.01,0-.01-.01-13.39-31.83-22.66-65.81-27.15-101.28h-.01c-2.05-16.2-3.11-32.7-3.11-49.44,0-2.88.03-5.75.1-8.61C4.67,169.57,177.09,0,389.11,0s389.11,174.21,389.11,389.11Z"/>
      <path class="cls-6" d="m30.28,539.84l480.35-107.94v-.05l-.76-85.29L3.12,438.55c4.49,35.47,13.76,69.45,27.15,101.28h.01Z"/>
      <path class="cls-4" d="m509.68,346.56L3.11,438.54c-2.05-16.19-3.11-32.69-3.11-49.43,0-2.88.03-5.75.1-8.61l236.43-20.53,273.15-13.41Z"/>
      <path class="cls-3" d="m30.27,539.83l480.31-107.98h.05l98.5,3.46-62.26,21.31-19.27,6.59-453.01,155.04-.03-.03c-17.63-24.17-32.54-50.44-44.28-78.38h-.01Z"/>
      <path class="cls-2" d="m698.76,526.23l-408.04,222.45-20.35,11.09c-39.56-12.66-76.36-31.48-109.28-55.33-.03-.02-.06-.04-.08-.06l449.32-184.75h.15s88.2,6.59,88.2,6.59h.08Z"/>
      <path class="cls-1" d="m709.53,609.93c-58.45,84.67-149.61,145.03-255.21,162.84-.01.01-.03.01-.04.01l111.14-73.46,135.06-89.26,9.05-.13Z"/>
      <path class="cls-6" d="m610.48,519.64v.04l-449.39,184.76s-.06-.04-.08-.06c-33.12-24-62.31-53.09-86.42-86.13-.01-.01-.02-.02-.03-.03l453.04-155.01,19.27-6.59,62.28-21.31,1.33,84.33Z"/>
      <path class="cls-6" d="m700.48,610.04l-135.06,89.28-111.1,73.45s-.03.01-.04.01c-21.19,3.58-42.96,5.44-65.17,5.44-41.41,0-81.31-6.47-118.74-18.45l20.35-11.09,407.96-222.46h.01l.65-.35,1.14,84.17Z"/>
    </g>
  </g>
</svg>