<?xml version="1.0" encoding="UTF-8"?>
<svg id="Layer_2" data-name="Layer 2" xmlns="http://www.w3.org/2000/svg" viewBox="0 0 807 807">
  <defs>
    <style>
      .cls-1 {
        fill: #fff;
      }

      .cls-2 {
        fill: #efefef;
      }
    </style>
  </defs>
  <g id="Layer_1-2" data-name="Layer 1">
    <g>
      <path class="cls-1" d="m807,403.5c0,85.04-26.31,163.94-71.24,228.99l-9.39.13-140.07,92.56-115.22,76.17s-.03.01-.04.01c-21.98,3.71-44.55,5.64-67.59,5.64-42.95,0-84.33-6.71-123.15-19.13l21.11-11.5,423.1-230.69-91.47-6.82v.04l-466.07,191.59s-.06-.04-.08-.06c-34.35-24.89-64.62-55.05-89.63-89.32l-.03-.03,469.85-160.74,19.99-6.83,64.57-22.1-102.16-3.59v.05L31.3,559.8h-.01c-13.89-33.02-23.5-68.25-28.16-105.04h-.01s525.37-95.39,525.37-95.39l-283.29,13.91L0,394.57C4.74,175.84,183.56,0,403.45,0s403.55,180.65,403.55,403.5Z"/>
      <path class="cls-2" d="m529.48,447.82v.05L31.3,559.8h-.01c-13.89-33.02-23.5-68.25-28.16-105.04l525.56-95.39.79,88.44Z"/>
      <polygon class="cls-1" points="529.48 447.87 31.3 559.8 31.29 559.79 529.43 447.82 529.48 447.82 529.48 447.87"/>
      <polygon class="cls-1" points="547.08 480.34 77.25 641.11 77.22 641.08 547.08 480.34"/>
      <path class="cls-1" d="m633.03,538.9l-466.07,191.59s-.06-.04-.08-.06l466-191.58h.16v.05Z"/>
      <polygon class="cls-1" points="724.59 545.69 301.41 776.37 724.51 545.68 724.52 545.68 724.59 545.69"/>
      <path class="cls-1" d="m586.3,725.18l-115.22,76.17s-.03.01-.04.01l115.27-76.18Z"/>
      <path class="cls-2" d="m633.03,538.86v.04l-466.07,191.59s-.06-.04-.08-.06c-34.35-24.89-64.62-55.05-89.63-89.32l-.03-.03,469.85-160.74,19.99-6.83,64.59-22.1,1.38,87.45Z"/>
      <path class="cls-2" d="m726.37,632.6l-140.07,92.58-115.22,76.17s-.03.01-.04.01c-21.98,3.71-44.55,5.64-67.59,5.64-42.95,0-84.33-6.71-123.15-19.13l21.11-11.5,423.1-230.69h.01l.67-.36,1.18,87.28Z"/>
    </g>
  </g>
</svg>
