<?xml version="1.0" encoding="UTF-8"?>
<svg id="Layer_2" data-name="Layer 2" xmlns="http://www.w3.org/2000/svg" viewBox="0 0 328 328">
  <defs>
    <style>
      .cls-1 {
        fill: #fff;
      }

      .cls-2 {
        fill: #efefef;
      }
    </style>
  </defs>
  <g id="Layer_5" data-name="Layer 5">
    <g>
      <path class="cls-1" d="m328,164c0,34.57-10.69,66.63-28.95,93.07l-3.81.05-56.93,37.62-46.83,30.96s-.01,0-.02,0c-8.93,1.51-18.11,2.29-27.47,2.29-17.46,0-34.27-2.73-50.05-7.78l8.58-4.67,171.97-93.76-37.18-2.77v.02l-189.43,77.87s-.03-.02-.03-.03c-13.96-10.12-26.27-22.38-36.43-36.3h-.01s190.97-65.35,190.97-65.35l8.12-2.78,26.24-8.98-41.52-1.46v.02L12.72,227.53h0c-5.64-13.42-9.55-27.74-11.44-42.69h0s213.53-38.77,213.53-38.77l-115.14,5.65L0,160.37C1.93,71.47,74.61,0,163.98,0s164.02,73.43,164.02,164Z"/>
      <path class="cls-2" d="m215.2,182.01v.02L12.72,227.53h0c-5.64-13.42-9.55-27.74-11.44-42.69l213.61-38.77.32,35.95Z"/>
      <polygon class="cls-1" points="215.2 182.03 12.72 227.53 12.72 227.52 215.18 182.01 215.2 182.01 215.2 182.03"/>
      <polygon class="cls-1" points="222.36 195.23 31.4 260.58 31.39 260.56 222.36 195.23"/>
      <path class="cls-1" d="m257.29,219.03l-189.43,77.87s-.03-.02-.03-.03l189.4-77.87h.06v.02Z"/>
      <polygon class="cls-1" points="294.51 221.79 122.5 315.55 294.47 221.79 294.48 221.79 294.51 221.79"/>
      <path class="cls-1" d="m238.3,294.75l-46.83,30.96s-.01,0-.02,0l46.85-30.96Z"/>
      <path class="cls-2" d="m257.29,219.02v.02l-189.43,77.87s-.03-.02-.03-.03c-13.96-10.12-26.27-22.38-36.43-36.3h-.01s190.97-65.35,190.97-65.35l8.12-2.78,26.25-8.98.56,35.54Z"/>
      <path class="cls-2" d="m295.23,257.12l-56.93,37.63-46.83,30.96s-.01,0-.02,0c-8.93,1.51-18.11,2.29-27.47,2.29-17.46,0-34.27-2.73-50.05-7.78l8.58-4.67,171.97-93.76h0l.27-.15.48,35.48Z"/>
    </g>
  </g>
</svg>
