<svg xmlns="http://www.w3.org/2000/svg" width="21" height="21" viewBox="0 0 21 21"><path d="M6,6 L15,6 A1,1 0 0 1 16,7 L16,14 A1,1 0 0 1 15,15 L6,15 A1,1 0 0 1 5,14 L5,7 A1,1 0 0 1 6,6 Z" fill="none" stroke="#819ABB" stroke-width="1.5" stroke-linecap="round" stroke-linejoin="round"/><path d="M8,8.5 L13,8.5 L13,12.5 L8,12.5 Z" fill="none" stroke="#819ABB" stroke-width="1.3" stroke-linecap="round" stroke-linejoin="round"/><path d="M8,2.5 L8,5.5 M13,2.5 L13,5.5 M8,15.5 L8,18.5 M13,15.5 L13,18.5" fill="none" stroke="#819ABB" stroke-width="1.5" stroke-linecap="round"/><path d="M2.5,8 L5.5,8 M2.5,13 L5.5,13 M15.5,8 L18.5,8 M15.5,13 L18.5,13" fill="none" stroke="#819ABB" stroke-width="1.5" stroke-linecap="round"/></svg>
