<svg preserveAspectRatio="none" width="100%" height="100%" overflow="visible" style="display: block;" viewBox="0 0 30.0025 36.0015" fill="none" xmlns="http://www.w3.org/2000/svg">
<g id="Frame 179">
<path id="Vector" d="M29.5621 16.0624C29.4228 16.2019 29.2573 16.3125 29.0752 16.388C28.8931 16.4635 28.698 16.5024 28.5008 16.5024C28.3037 16.5024 28.1085 16.4635 27.9264 16.388C27.7443 16.3125 27.5789 16.2019 27.4396 16.0624L16.5008 5.12181V34.5012C16.5008 34.899 16.3428 35.2805 16.0615 35.5618C15.7802 35.8431 15.3987 36.0012 15.0008 36.0012C14.603 36.0012 14.2215 35.8431 13.9402 35.5618C13.6589 35.2805 13.5008 34.899 13.5008 34.5012V5.12181L2.56208 16.0624C2.28062 16.3439 1.89888 16.502 1.50083 16.502C1.10279 16.502 0.721045 16.3439 0.439584 16.0624C0.158123 15.781 2.96567e-09 15.3992 0 15.0012C-2.96567e-09 14.6031 0.158123 14.2214 0.439584 13.9399L13.9396 0.43993C14.0789 0.300465 14.2443 0.189827 14.4264 0.11434C14.6085 0.038854 14.8037 0 15.0008 0C15.198 0 15.3931 0.038854 15.5752 0.11434C15.7573 0.189827 15.9228 0.300465 16.0621 0.43993L29.5621 13.9399C29.7016 14.0792 29.8122 14.2447 29.8877 14.4268C29.9632 14.6089 30.002 14.8041 30.002 15.0012C30.002 15.1983 29.9632 15.3935 29.8877 15.5756C29.8122 15.7577 29.7016 15.9231 29.5621 16.0624Z" fill="var(--fill-0, white)"/>
</g>
</svg>
