<svg preserveAspectRatio="none" width="100%" height="100%" overflow="visible" style="display: block;" viewBox="0 0 219.367 107.583" fill="none" xmlns="http://www.w3.org/2000/svg">
<g id="g1506">
<path id="rect2415-6-8" d="M213.723 42.9635H218.872C219.146 42.9635 219.367 43.1843 219.367 43.4586V94.7234C219.367 94.9977 219.146 95.2185 218.872 95.2185H213.723C213.448 95.2185 213.228 94.9977 213.228 94.7234V43.4586C213.228 43.1843 213.449 42.9635 213.723 42.9635Z" fill="var(--fill-0, #3F4B5B)"/>
<path id="rect2415-6" d="M0.495108 32.3375H5.6442C5.9185 32.3375 6.1393 32.5583 6.1393 32.8326V64.4921C6.1393 64.7664 5.91841 64.9873 5.6442 64.9873H0.495108C0.220814 64.9873 8.01648e-06 64.7664 8.01648e-06 64.4921V32.8326C8.01648e-06 32.5583 0.220905 32.3375 0.495108 32.3375Z" fill="var(--fill-0, #3F4B5B)"/>
<path id="rect2415-6-0" d="M0.495108 74.9335H5.6442C5.9185 74.9335 6.1393 75.1544 6.1393 75.4286V107.088C6.1393 107.363 5.91841 107.583 5.6442 107.583H0.495108C0.220814 107.583 8.01648e-06 107.363 8.01648e-06 107.088V75.4286C8.01648e-06 75.1544 0.220905 74.9335 0.495108 74.9335Z" fill="var(--fill-0, #3F4B5B)"/>
<path id="rect2415" d="M5.64422 5.71299e-05H0.495114C0.221675 5.71299e-05 8.01648e-06 0.221725 8.01648e-06 0.495164V16.4706C8.01648e-06 16.744 0.221675 16.9657 0.495114 16.9657H5.64422C5.91766 16.9657 6.13932 16.744 6.13932 16.4706V0.495164C6.13932 0.221725 5.91766 5.71299e-05 5.64422 5.71299e-05Z" fill="var(--fill-0, #3F4B5B)"/>
</g>
</svg>
