<svg preserveAspectRatio="none" width="100%" height="100%" overflow="visible" style="display: block;" viewBox="0 0 219.367 107.583" fill="none" xmlns="http://www.w3.org/2000/svg">
<g id="g1506">
<path id="rect2415-6-8" d="M213.723 42.9635H218.872C219.146 42.9635 219.367 43.1843 219.367 43.4586V94.7234C219.367 94.9976 219.146 95.2185 218.872 95.2185H213.723C213.448 95.2185 213.228 94.9977 213.228 94.7234V43.4586C213.228 43.1843 213.449 42.9635 213.723 42.9635Z" fill="var(--fill-0, #3F4B5B)"/>
<path id="rect2415-6" d="M0.4951 32.3374H5.64419C5.91849 32.3374 6.13929 32.5582 6.13929 32.8325V64.4921C6.13929 64.7664 5.9184 64.9872 5.64419 64.9872H0.4951C0.220806 64.9872 0 64.7664 0 64.4921V32.8325C0 32.5582 0.220897 32.3374 0.4951 32.3374Z" fill="var(--fill-0, #3F4B5B)"/>
<path id="rect2415-6-0" d="M0.4951 74.9335H5.64419C5.91849 74.9335 6.13929 75.1543 6.13929 75.4286V107.088C6.13929 107.362 5.9184 107.583 5.64419 107.583H0.4951C0.220806 107.583 0 107.362 0 107.088V75.4286C0 75.1543 0.220897 74.9335 0.4951 74.9335Z" fill="var(--fill-0, #3F4B5B)"/>
<path id="rect2415" d="M5.64421 0H0.495106C0.221667 0 0 0.221668 0 0.495107V16.4705C0 16.744 0.221667 16.9656 0.495106 16.9656H5.64421C5.91765 16.9656 6.13932 16.744 6.13932 16.4705V0.495107C6.13932 0.221668 5.91765 0 5.64421 0Z" fill="var(--fill-0, #3F4B5B)"/>
</g>
</svg>
