<svg preserveAspectRatio="none" width="100%" height="100%" overflow="visible" style="display: block;" viewBox="0 0 195.493 423.331" fill="none" xmlns="http://www.w3.org/2000/svg">
<path id="path998" d="M23.1665 1.19706e-08C10.3723 -0.000406858 0.000254838 10.3711 1.2403e-08 23.1654V400.166C-0.000414156 412.961 10.3718 423.332 23.1665 423.331H172.327C185.121 423.332 195.494 412.961 195.493 400.166V23.1654C195.493 10.3711 185.121 -0.000406858 172.327 1.19706e-08H142.619C139.911 1.19706e-08 138.511 0.279918 138.511 4.57439C138.511 8.86887 135.85 16.1048 126.327 16.1048H69.1659C59.6433 16.1048 56.9821 8.86887 56.9821 4.57439C56.9821 0.279919 55.5819 1.19706e-08 52.8746 1.19706e-08H23.1665Z" fill="var(--fill-0, white)"/>
</svg>
