<svg preserveAspectRatio="none" width="100%" height="100%" overflow="visible" style="display: block;" viewBox="0 0 206.871 253.647" fill="none" xmlns="http://www.w3.org/2000/svg">
<path id="Vector" d="M199.368 86.7817C197.907 87.9146 172.127 102.441 172.127 134.741C172.127 172.102 204.931 185.319 205.913 185.647C205.762 186.452 200.702 203.748 188.618 221.371C177.842 236.879 166.589 252.362 149.469 252.362C132.35 252.362 127.944 242.418 108.181 242.418C88.9216 242.418 82.0738 252.69 66.4145 252.69C50.7552 252.69 39.8289 238.34 27.2663 220.717C12.7147 200.022 0.957619 167.873 0.957619 137.36C0.957619 88.4181 32.7797 62.4619 64.0983 62.4619C80.7395 62.4619 94.6113 73.3882 105.059 73.3882C115.004 73.3882 130.512 61.8074 149.444 61.8074C156.619 61.8074 182.399 62.4619 199.368 86.7817ZM140.456 41.0877C148.286 31.7979 153.825 18.9079 153.825 6.01795C153.825 4.23047 153.674 2.41782 153.346 0.957627C140.607 1.43597 125.452 9.44185 116.313 20.0408C109.138 28.1978 102.441 41.0877 102.441 54.1539C102.441 56.1177 102.768 58.0814 102.919 58.7107C103.725 58.8618 105.034 59.038 106.343 59.038C117.773 59.038 132.148 51.3846 140.456 41.0877Z" stroke="var(--stroke-0, white)" stroke-width="1.91524" stroke-linejoin="round"/>
</svg>
