<svg preserveAspectRatio="none" width="100%" height="100%" overflow="visible" style="display: block;" viewBox="0 0 6.95519 6.95524" fill="none" xmlns="http://www.w3.org/2000/svg">
<g id="g2170">
<path id="path5263" d="M3.4776 6.95524C5.39822 6.95524 6.95519 5.39826 6.95519 3.47764C6.95519 1.55702 5.39822 4.35472e-05 3.4776 4.35472e-05C1.55698 4.35472e-05 4.13391e-06 1.55702 4.13391e-06 3.47764C4.13391e-06 5.39826 1.55698 6.95524 3.4776 6.95524Z" fill="var(--fill-0, #161616)"/>
<path id="path5265" d="M3.47683 5.62543C4.66149 5.62543 5.62186 4.66506 5.62186 3.4804C5.62186 2.29573 4.66149 1.33537 3.47683 1.33537C2.29216 1.33537 1.33179 2.29573 1.33179 3.4804C1.33179 4.66506 2.29216 5.62543 3.47683 5.62543Z" fill="var(--fill-0, #0A0D13)"/>
<path id="path5267" d="M3.47836 5.11981C4.38099 5.11981 5.1127 4.38809 5.1127 3.48547C5.1127 2.58285 4.38099 1.85113 3.47836 1.85113C2.57574 1.85113 1.84402 2.58285 1.84402 3.48547C1.84402 4.38809 2.57574 5.11981 3.47836 5.11981Z" fill="var(--fill-0, #091427)"/>
<g id="path5271" filter="url(#filter0_f_0_123)">
<path fill-rule="evenodd" clip-rule="evenodd" d="M2.35245 2.38808C2.15864 2.40848 1.88324 2.70429 1.86284 3.2857C1.84245 3.86711 2.09745 4.18332 2.24025 4.18332C2.38305 4.18332 2.97466 3.3367 2.35244 2.38808H2.35245Z" fill="var(--fill-0, #235A91)" fill-opacity="0.556075"/>
</g>
<g id="path5273" filter="url(#filter1_f_0_123)">
<path fill-rule="evenodd" clip-rule="evenodd" d="M3.74188 2.18732C3.43618 2.28138 3.37739 2.77521 3.38915 3.0574C3.40089 3.33959 3.80068 4.08033 4.28275 3.91572C4.76482 3.75111 4.84713 3.1397 4.64724 2.72818C4.44736 2.31665 4.08286 2.02271 3.74188 2.18732V2.18732Z" fill="var(--fill-0, #235A91)" fill-opacity="0.556075"/>
</g>
</g>
<defs>
<filter id="filter0_f_0_123" x="1.73831" y="2.26471" width="1.01669" height="2.04198" filterUnits="userSpaceOnUse" color-interpolation-filters="sRGB">
<feFlood flood-opacity="0" result="BackgroundImageFix"/>
<feBlend mode="normal" in="SourceGraphic" in2="BackgroundImageFix" result="shape"/>
<feGaussianBlur stdDeviation="0.0616847" result="effect1_foregroundBlur_0_123"/>
</filter>
<filter id="filter1_f_0_123" x="3.2644" y="2.01743" width="1.60769" height="2.04526" filterUnits="userSpaceOnUse" color-interpolation-filters="sRGB">
<feFlood flood-opacity="0" result="BackgroundImageFix"/>
<feBlend mode="normal" in="SourceGraphic" in2="BackgroundImageFix" result="shape"/>
<feGaussianBlur stdDeviation="0.0616847" result="effect1_foregroundBlur_0_123"/>
</filter>
</defs>
</svg>
