<svg preserveAspectRatio="none" width="100%" height="100%" overflow="visible" style="display: block;" viewBox="0 0 211.565 437.674" fill="none" xmlns="http://www.w3.org/2000/svg">
<path id="rect3540" d="M32.0528 0.152045C14.3797 0.152045 0.152045 14.3797 0.152045 32.0528V405.621C0.152045 423.294 14.3797 437.522 32.0528 437.522H179.512C197.185 437.522 211.413 423.294 211.413 405.621V32.0528C211.413 14.3797 197.185 0.152045 179.512 0.152045H125.581C125.246 0.1522 124.922 0.272421 124.667 0.490953C124.413 0.709486 124.245 1.01189 124.194 1.34345V1.40522H124.186H88.5408C88.5036 1.06103 88.3405 0.742723 88.0829 0.511427C87.8253 0.280131 87.4913 0.152146 87.1451 0.152045H32.0528Z" fill="var(--fill-0, black)" stroke="var(--stroke-0, #434343)" stroke-width="0.304089"/>
</svg>
