<svg preserveAspectRatio="none" width="100%" height="100%" overflow="visible" style="display: block;" viewBox="0 0 26.4782 26.4784" fill="none" xmlns="http://www.w3.org/2000/svg">
<g id="Group">
<path id="Vector" d="M26.4782 13.2391C26.4782 16.0298 25.6152 18.6179 24.1412 20.7523L23.8336 20.7563L19.2379 23.7933L15.4575 26.2925C15.4575 26.2925 15.4567 26.2925 15.4558 26.2925C14.735 26.4144 13.9939 26.4774 13.2383 26.4774C11.8288 26.4774 10.4718 26.257 9.19795 25.8494L9.89058 25.4724L23.7731 17.9035L20.7717 17.6799V17.6815L5.4797 23.9676C5.4797 23.9676 5.47728 23.966 5.47728 23.9652C4.35034 23.1483 3.3566 22.1586 2.53642 21.0348H2.53561L17.9519 15.7594L18.6074 15.535L20.7257 14.81L17.3739 14.6922V14.6938L1.02684 18.3676C0.571543 17.2843 0.255904 16.1283 0.103331 14.9214L17.3408 11.7917L8.04599 12.2478L1.37358e-06 12.9461C0.155803 5.76951 6.02299 0 13.2375 0C20.452 0 26.4782 5.92773 26.4782 13.2391Z" fill="var(--fill-0, white)"/>
<path id="Vector_2" d="M17.372 14.693V14.6946L1.02658 18.3677C0.571285 17.2843 0.255645 16.1283 0.103072 14.9215L17.347 11.7917L17.3728 14.6938L17.372 14.693Z" fill="var(--fill-0, #EFEFEF)"/>
<path id="Vector_3" d="M17.3728 14.6945L1.02733 18.3676V18.3668L17.3712 14.6929H17.3728V14.6945Z" fill="var(--fill-0, white)"/>
<path id="Vector_4" d="M17.9508 15.7604L2.53534 21.0358L2.53453 21.0342L17.9508 15.7604Z" fill="var(--fill-0, white)"/>
<path id="Vector_5" d="M20.7707 17.6814L5.4787 23.9676C5.4787 23.9676 5.47628 23.966 5.47628 23.9652L20.7658 17.679H20.7707V17.6806V17.6814Z" fill="var(--fill-0, white)"/>
<path id="Vector_6" d="M23.7755 17.9044L9.88975 25.4733L23.7722 17.9044H23.7731H23.7755Z" fill="var(--fill-0, white)"/>
<path id="Vector_7" d="M19.2376 23.7942L15.4572 26.2935C15.4572 26.2935 15.4564 26.2935 15.4556 26.2935L19.2376 23.7942Z" fill="var(--fill-0, white)"/>
<path id="Vector_8" d="M20.7706 17.6806V17.6822L5.47862 23.9683C5.47862 23.9683 5.4762 23.9667 5.4762 23.9659C4.34926 23.149 3.35552 22.1593 2.53534 21.0356H2.53453L17.9508 15.7601L18.6063 15.5357L20.7254 14.8108L20.7706 17.6798V17.6806Z" fill="var(--fill-0, #EFEFEF)"/>
<path id="Vector_9" d="M23.8326 20.7565L19.2369 23.7942L15.4565 26.2935C15.4565 26.2935 15.4557 26.2935 15.4549 26.2935C14.734 26.4154 13.9929 26.4784 13.2373 26.4784C11.8278 26.4784 10.4708 26.258 9.19698 25.8503L9.88961 25.4733L23.7721 17.9044L23.7939 17.8923L23.8326 20.7565Z" fill="var(--fill-0, #EFEFEF)"/>
</g>
</svg>
