<svg preserveAspectRatio="none" width="100%" height="100%" overflow="visible" style="display: block;" viewBox="0 0 19.0061 15.8388" fill="none" xmlns="http://www.w3.org/2000/svg">
<path id="Vector" d="M18.7739 8.47966L11.6468 15.6067C11.4982 15.7553 11.2967 15.8388 11.0865 15.8388C10.8764 15.8388 10.6749 15.7553 10.5263 15.6067C10.3777 15.4581 10.2942 15.2566 10.2942 15.0465C10.2942 14.8363 10.3777 14.6348 10.5263 14.4862L16.3022 8.71129H0.791896C0.581872 8.71129 0.38045 8.62786 0.231941 8.47935C0.0834318 8.33084 0 8.12942 0 7.9194C0 7.70937 0.0834318 7.50795 0.231941 7.35944C0.38045 7.21093 0.581872 7.1275 0.791896 7.1275H16.3022L10.5263 1.3526C10.3777 1.20401 10.2942 1.00248 10.2942 0.792336C10.2942 0.582195 10.3777 0.380662 10.5263 0.23207C10.6749 0.083478 10.8764 0 11.0865 0C11.2967 0 11.4982 0.083478 11.6468 0.23207L18.7739 7.35913C18.8475 7.43268 18.9059 7.52001 18.9458 7.61615C18.9856 7.71228 19.0061 7.81533 19.0061 7.9194C19.0061 8.02347 18.9856 8.12651 18.9458 8.22265C18.9059 8.31878 18.8475 8.40612 18.7739 8.47966Z" fill="var(--fill-0, white)"/>
</svg>
