<svg preserveAspectRatio="none" width="100%" height="100%" overflow="visible" style="display: block;" viewBox="0 0 13.1987 10.9992" fill="none" xmlns="http://www.w3.org/2000/svg">
<path id="Vector" d="M13.0374 5.88866L8.08806 10.838C7.98487 10.9412 7.84492 10.9992 7.69899 10.9992C7.55306 10.9992 7.4131 10.9412 7.30991 10.838C7.20672 10.7348 7.14875 10.5949 7.14875 10.4489C7.14875 10.303 7.20672 10.163 7.30991 10.0599L11.3209 6.04951H0.549928C0.404078 6.04951 0.264202 5.99157 0.16107 5.88844C0.0579387 5.78531 0 5.64543 0 5.49958C0 5.35373 0.0579387 5.21386 0.16107 5.11072C0.264202 5.00759 0.404078 4.94965 0.549928 4.94965H11.3209L7.30991 0.939307C7.20672 0.836118 7.14875 0.696164 7.14875 0.550233C7.14875 0.404302 7.20672 0.264348 7.30991 0.16116C7.4131 0.0579708 7.55306 0 7.69899 0C7.84492 0 7.98487 0.0579708 8.08806 0.16116L13.0374 5.11051C13.0885 5.16158 13.1291 5.22223 13.1568 5.28899C13.1845 5.35575 13.1987 5.42731 13.1987 5.49958C13.1987 5.57185 13.1845 5.64341 13.1568 5.71017C13.1291 5.77693 13.0885 5.83758 13.0374 5.88866Z" fill="var(--fill-0, white)"/>
</svg>
