<svg preserveAspectRatio="none" width="100%" height="100%" overflow="visible" style="display: block;" viewBox="0 0 64.6452 12.3911" fill="none" xmlns="http://www.w3.org/2000/svg">
<g id="Group">
<path id="Vector" d="M0.000116157 2.42161C0.000116157 1.56567 0.229125 0.948081 0.687141 0.568849C1.14516 0.189618 1.92966 1.37521e-06 3.04131 1.37521e-06H9.91289C11.0245 1.37521e-06 11.809 0.189618 12.2671 0.568849C12.7251 0.948081 12.9541 1.56567 12.9541 2.42161V2.98512L10.194 3.43579V2.14053H2.75956V4.90064H9.91289C11.0245 4.90064 11.809 5.09025 12.2671 5.46949C12.7251 5.84872 12.9541 6.46631 12.9541 7.32225V9.85669C12.9541 10.7654 12.7291 11.415 12.2784 11.8056C11.8277 12.1962 11.0392 12.3911 9.91289 12.3911H3.04131C1.91497 12.3911 1.12646 12.1962 0.67579 11.8056C0.225118 11.415 0.000116157 10.7654 0.000116157 9.85669V8.89927L2.76023 8.44859V10.1384H10.1946V6.92833H3.04131C1.91497 6.92833 1.12646 6.73337 0.67579 6.34279C0.225118 5.95221 0.000116157 5.30257 0.000116157 4.39388V2.42228V2.42161Z" fill="var(--fill-0, white)"/>
<path id="Vector_2" d="M24.9633 12.3911H22.2032V2.14052H16.6836V1.37521e-06H30.4829V2.14052H24.9633V12.3911Z" fill="var(--fill-0, white)"/>
<path id="Vector_3" d="M39.6281 1.37521e-06L46.4997 12.3911H43.5373L42.0391 9.68777H34.1313L32.633 12.3911H29.9297L36.8013 1.37521e-06H39.6288H39.6281ZM35.2576 7.66008H40.9127L38.0852 2.55715L35.2576 7.66008Z" fill="var(--fill-0, white)"/>
<path id="Vector_4" d="M50.7098 12.3911V1.37521e-06H53.4699V5.05754L59.4742 1.37521e-06H63.1917L56.1853 5.80131L64.6452 12.3911H60.4323L53.4706 6.90496V12.3911H50.7105H50.7098Z" fill="var(--fill-0, white)"/>
</g>
</svg>
