<svg preserveAspectRatio="none" width="100%" height="100%" overflow="visible" style="display: block;" viewBox="0 0 31.9219 14.1875" fill="none" xmlns="http://www.w3.org/2000/svg">
<g id="Frame 217">
<path id="Vector" d="M30.2371 0H1.68477C0.754295 0 0 0.754295 0 1.68477V1.86211C0 2.79258 0.754295 3.54688 1.68477 3.54688H30.2371C31.1676 3.54688 31.9219 2.79258 31.9219 1.86211V1.68477C31.9219 0.754295 31.1676 0 30.2371 0Z" fill="var(--fill-0, white)"/>
<path id="Vector_2" d="M30.2371 10.6406H1.68477C0.754295 10.6406 0 11.3949 0 12.3254V12.5027C0 13.4332 0.754295 14.1875 1.68477 14.1875H30.2371C31.1676 14.1875 31.9219 13.4332 31.9219 12.5027V12.3254C31.9219 11.3949 31.1676 10.6406 30.2371 10.6406Z" fill="var(--fill-0, white)"/>
</g>
</svg>
