<svg preserveAspectRatio="none" width="100%" height="100%" overflow="visible" style="display: block;" viewBox="0 0 21.8994 21.8986" fill="none" xmlns="http://www.w3.org/2000/svg">
<g id="Group">
<path id="Vector" d="M21.8994 10.9497C21.8994 13.2578 21.1857 15.3983 19.9665 17.1636L19.7121 17.1669L15.9112 19.6787L12.7845 21.7457C12.7845 21.7457 12.7838 21.7457 12.7832 21.7457C12.1869 21.8466 11.574 21.8986 10.9491 21.8986C9.78335 21.8986 8.66101 21.7164 7.60744 21.3792L8.1803 21.0674L19.6621 14.8074L17.1797 14.6225V14.6238L4.53219 19.8229C4.53219 19.8229 4.53019 19.8215 4.53019 19.8209C3.59813 19.1452 2.77624 18.3267 2.0979 17.3973H2.09723L14.8476 13.0341L15.3897 12.8485L17.1417 12.2489L14.3695 12.1514V12.1528L0.849369 15.1913C0.472808 14.2953 0.211752 13.3392 0.0855639 12.3411L14.3421 9.75254L6.65469 10.1298L0.00010316 10.7073C0.128962 4.77178 4.98153 0 10.9484 0C16.9153 0 21.8994 4.90264 21.8994 10.9497Z" fill="var(--fill-0, white)"/>
<path id="Vector_2" d="M14.3667 12.1499V12.1513L0.847907 15.1891C0.471346 14.2931 0.21029 13.337 0.0841024 12.3389L14.346 9.75037L14.3674 12.1506L14.3667 12.1499Z" fill="var(--fill-0, #EFEFEF)"/>
<path id="Vector_3" d="M14.3718 12.1554L0.853018 15.1932V15.1926L14.3705 12.154H14.3718V12.1554Z" fill="var(--fill-0, white)"/>
<path id="Vector_4" d="M14.844 13.0328L2.09429 17.396L2.09362 17.3946L14.844 13.0328Z" fill="var(--fill-0, white)"/>
<path id="Vector_5" d="M17.1791 14.6243L4.5316 19.8234C4.5316 19.8234 4.5296 19.8221 4.5296 19.8214L17.1751 14.6223H17.1791V14.6237V14.6243Z" fill="var(--fill-0, white)"/>
<path id="Vector_6" d="M19.6648 14.8097L8.18033 21.0697L19.6621 14.8097H19.6628H19.6648Z" fill="var(--fill-0, white)"/>
<path id="Vector_7" d="M15.9089 19.6817L12.7822 21.7487C12.7822 21.7487 12.7816 21.7487 12.7809 21.7487L15.9089 19.6817Z" fill="var(--fill-0, white)"/>
<path id="Vector_8" d="M17.1761 14.6245V14.6258L4.52858 19.8249C4.52858 19.8249 4.52658 19.8236 4.52658 19.8229C3.59453 19.1472 2.77263 18.3287 2.09429 17.3993H2.09362L14.844 13.0361L15.3861 12.8505L17.1387 12.251L17.1761 14.6238V14.6245Z" fill="var(--fill-0, #EFEFEF)"/>
<path id="Vector_9" d="M19.71 17.1656L15.909 19.6781L12.7823 21.7451C12.7823 21.7451 12.7816 21.7451 12.781 21.7451C12.1848 21.846 11.5718 21.898 10.9469 21.898C9.78117 21.898 8.65883 21.7158 7.60526 21.3786L8.17812 21.0668L19.6599 14.8068L19.6779 14.7968L19.71 17.1656Z" fill="var(--fill-0, #EFEFEF)"/>
</g>
</svg>
