<svg preserveAspectRatio="none" width="100%" height="100%" overflow="visible" style="display: block;" viewBox="0 0 9.08498 9.46619" fill="none" xmlns="http://www.w3.org/2000/svg">
<path id="Vector" d="M6.60899 6.20769C6.40863 6.9904 5.73502 7.3909 4.71542 7.3909C3.44101 7.3909 2.62176 6.58989 2.43965 5.29738H9.03039C9.0485 5.09716 9.06674 4.82419 9.06674 4.47819C9.06674 2.3848 7.77409 0 4.53343 0C1.42017 0 0 2.3848 0 4.71489C0 7.02687 1.60216 9.46619 4.71542 9.46619C6.97308 9.46619 8.72088 8.19185 9.08498 6.20769H6.60899ZM4.53343 1.85689C5.75326 1.85689 6.46322 2.67608 6.53603 3.69555H2.47612C2.69458 2.42115 3.38643 1.85689 4.53343 1.85689Z" fill="var(--fill-0, white)"/>
</svg>
