<svg preserveAspectRatio="none" width="100%" height="100%" overflow="visible" style="display: block;" viewBox="0 0 9.72225 13.0342" fill="none" xmlns="http://www.w3.org/2000/svg">
<path id="Vector" d="M4.93348 13.0342C7.79207 13.0342 9.72225 11.5414 9.72225 9.15669C9.72225 4.11411 3.0218 6.26228 3.0218 3.60444C3.0218 2.85801 3.69582 2.34834 4.76961 2.34834C5.98943 2.34834 6.75462 3.00371 6.84515 4.00488H9.44868C9.37599 1.58373 7.51917 0 4.76961 0C2.18459 0 0.364098 1.49269 0.364098 3.60444C0.364098 8.61054 6.97269 6.69913 6.97269 9.19303C6.97269 10.1579 6.15331 10.6677 4.93348 10.6677C3.58679 10.6677 2.73106 9.84847 2.62137 8.55596H0C0.109031 11.2684 2.03921 13.0342 4.93348 13.0342Z" fill="var(--fill-0, white)"/>
</svg>
