<svg preserveAspectRatio="none" width="100%" height="100%" overflow="visible" style="display: block;" viewBox="0 0 13.4868 13.86" fill="none" xmlns="http://www.w3.org/2000/svg">
<path id="Vector" d="M6.85001 13.86C5.51736 13.86 4.33569 13.5757 3.30508 13.0071C2.27447 12.4385 1.46599 11.6388 0.879545 10.6082C0.293182 9.57763 0 8.3871 0 7.03665C0 5.66839 0.284319 4.45119 0.852876 3.38505C1.43932 2.31888 2.23894 1.49262 3.25174 0.906228C4.28235 0.302076 5.49069 0 6.87667 0C8.17388 0 9.31993 0.284303 10.315 0.852926C11.3101 1.42154 12.083 2.20338 12.634 3.19846C13.2025 4.17573 13.4868 5.26861 13.4868 6.47687C13.4868 6.67232 13.478 6.87672 13.4602 7.0899C13.4602 7.26072 13.4545 7.43723 13.4431 7.61951C13.4383 7.69667 13.3738 7.75627 13.2964 7.75627H3.54371C3.45785 7.75627 3.3898 7.82911 3.39834 7.91448C3.49362 8.86996 3.84461 9.62576 4.45122 10.1818C5.10864 10.7682 5.8994 11.0613 6.82342 11.0613C7.51637 11.0613 8.09387 10.9103 8.55592 10.6082C9.00805 10.3068 9.34969 9.92651 9.58092 9.46722C9.60677 9.41576 9.65889 9.38218 9.71653 9.38218H12.8884C12.9875 9.38218 13.0586 9.47755 13.0273 9.57162C12.7737 10.3332 12.3761 11.0341 11.8343 11.6744C11.2657 12.3496 10.5549 12.8827 9.70198 13.2736C8.86683 13.6645 7.91622 13.86 6.85001 13.86ZM6.87667 2.77202C6.04152 2.77202 5.3041 3.01187 4.6644 3.49164C4.06413 3.92523 3.66729 4.57778 3.47379 5.44952C3.4537 5.53993 3.52379 5.62399 3.61639 5.62399H9.86443C9.94979 5.62399 10.0178 5.55196 10.0091 5.46708C9.92865 4.66965 9.61303 4.0289 9.06228 3.54497C8.47592 3.02967 7.74736 2.77202 6.87667 2.77202Z" fill="var(--fill-0, white)"/>
</svg>
