<svg preserveAspectRatio="none" width="100%" height="100%" overflow="visible" style="display: block;" viewBox="0 0 9.75859 12.743" fill="none" xmlns="http://www.w3.org/2000/svg">
<path id="Vector" d="M0 12.743H5.20692C7.9015 12.743 9.75859 11.3594 9.75859 8.93826C9.75859 7.26348 8.77546 6.244 7.61022 5.78892C8.35665 5.38841 9.10308 4.47817 9.10308 3.27678C9.10308 1.14687 7.37352 0 5.06128 0H0V12.743ZM2.69445 4.8605V2.16632H4.80648C6.0263 2.16632 6.57238 2.65782 6.57238 3.51341C6.57238 4.36907 6.0263 4.8605 4.86106 4.8605H2.69445ZM2.69445 10.3764V7.17248H4.97035C6.48145 7.17248 7.15507 7.75491 7.15507 8.79268C7.15507 9.83026 6.48145 10.3764 4.97035 10.3764H2.69445Z" fill="var(--fill-0, white)"/>
</svg>
