<svg preserveAspectRatio="none" width="100%" height="100%" overflow="visible" style="display: block;" viewBox="0 0 79.8164 21" fill="none" xmlns="http://www.w3.org/2000/svg">
<path id="Vector" d="M54.0094 4.33978C52.5932 4.33978 51.5011 4.84444 50.4879 5.89772V4.58521H47.7067V17.5002H50.6992V10.0098C50.6992 8.295 51.7204 7.21022 53.2698 7.21022C53.5513 7.21022 53.7981 7.245 53.974 7.27979L56.051 4.54979C55.2411 4.41 54.537 4.33978 54.0087 4.33978H54.0094ZM79.8164 4.58521H76.3659L73.1797 8.79769L69.9936 4.58456H66.5431L71.4111 11.0926L66.5431 17.5002H70.0639L73.162 13.4144L76.2602 17.5002H79.8164L74.9155 11.1031L79.8164 4.58521ZM16.9706 1.68C15.9495 3.045 15.7027 3.49979 14.7171 3.49979H0V21H5.77434C7.077 21 8.34422 20.37 9.15404 19.32C10.2106 17.9202 10.351 17.5002 11.3721 17.5002H26.1246V0H20.3149C19.0122 0 17.745 0.63 16.97 1.68H16.9706ZM21.5473 12.9852H15.3858C14.0476 12.9852 12.8159 13.545 12.0061 14.6298C10.9495 16.0302 10.7382 16.4502 9.7525 16.4502H4.54191V8.05022H10.7034C12.0409 8.05022 13.2733 7.42021 14.0831 6.37021C15.1396 5.00521 15.4212 4.58521 16.3715 4.58521H21.5473V12.9852ZM43.6577 8.68022C44.961 7.94522 45.8758 6.64978 45.8758 4.935C45.8758 2.415 43.9399 0 41.1232 0H32.6734V17.5002H41.1232C44.186 17.5002 46.2985 15.33 46.2985 12.6C46.2985 10.9902 45.5595 9.58979 43.6577 8.68022ZM35.6659 2.73H40.8765C42.1791 2.73 42.9535 3.95521 42.9535 5.04C42.9535 6.37021 41.792 7.27979 40.7006 7.27979H35.6659V2.73ZM40.7006 14.7702H35.6659V10.0098H40.8765C42.2146 10.0098 43.3059 11.1648 43.3059 12.3552C43.3059 13.6848 41.9331 14.7702 40.7006 14.7702Z" fill="var(--fill-0, white)"/>
</svg>
