<svg preserveAspectRatio="none" width="100%" height="100%" overflow="visible" style="display: block;" viewBox="0 0 14.3398 19.477" fill="none" xmlns="http://www.w3.org/2000/svg">
<path id="Vector" d="M6.50355 19.477C5.2597 19.477 4.14912 19.1749 3.17181 18.5708C2.1945 17.9666 1.42154 17.1403 0.852925 16.0919C0.284308 15.0436 0 13.853 0 12.5203C0 11.1876 0.284308 10.006 0.852925 8.97537C1.42154 7.92693 2.1945 7.10954 3.17181 6.52315C4.14912 5.919 5.2597 5.61693 6.50355 5.61693C7.49862 5.61693 8.36933 5.8035 9.11562 6.17665C9.71507 6.47637 10.2228 6.87352 10.6388 7.36811C10.7325 7.47953 10.9281 7.41617 10.9281 7.27058V0.79227C10.9281 0.722049 10.9774 0.661482 11.0462 0.647263L14.1617 0.00312014C14.2536 -0.0158788 14.3398 0.0542955 14.3398 0.148132V19.0091C14.3398 19.0909 14.2734 19.1571 14.1917 19.1571H11.4229C11.3522 19.1571 11.2914 19.1071 11.2776 19.0377L10.9937 17.5974C10.9687 17.4706 10.8024 17.4328 10.7197 17.5321C10.3221 18.009 9.82288 18.4352 9.22221 18.8106C8.52925 19.2548 7.623 19.477 6.50355 19.477ZM7.2232 16.4917C8.32486 16.4917 9.22221 16.1275 9.91524 15.3989C10.626 14.6526 10.9814 13.702 10.9814 12.547C10.9814 11.392 10.626 10.4502 9.91524 9.72165C9.22221 8.97537 8.32486 8.60218 7.2232 8.60218C6.13927 8.60218 5.24192 8.96642 4.53116 9.69499C3.82038 10.4235 3.465 11.3653 3.465 12.5203C3.465 13.6753 3.82038 14.626 4.53116 15.3723C5.24192 16.1186 6.13927 16.4917 7.2232 16.4917Z" fill="var(--fill-0, white)"/>
</svg>
