<svg preserveAspectRatio="none" width="100%" height="100%" overflow="visible" style="display: block;" viewBox="0 0 9.08458 9.46619" fill="none" xmlns="http://www.w3.org/2000/svg">
<path id="Vector" d="M6.60859 6.20769C6.40837 6.9904 5.73436 7.3909 4.71542 7.3909C3.44075 7.3909 2.62137 6.58989 2.43965 5.29738H9.02974C9.04824 5.09716 9.06674 4.82419 9.06674 4.47819C9.06674 2.3848 7.77357 0 4.53304 0C1.42004 0 0 2.3848 0 4.71489C0 7.02687 1.60176 9.46619 4.71542 9.46619C6.97269 9.46619 8.72048 8.19185 9.08458 6.20769H6.60859ZM4.53304 1.85689C5.75286 1.85689 6.46322 2.67608 6.53591 3.69555H2.47599C2.69405 2.42115 3.3859 1.85689 4.53304 1.85689Z" fill="var(--fill-0, white)"/>
</svg>
