<svg preserveAspectRatio="none" width="100%" height="100%" overflow="visible" style="display: block;" viewBox="0 0 99.9996 21.683" fill="none" xmlns="http://www.w3.org/2000/svg">
<g id="Group">
<path id="Vector" d="M9.18384 4.88166C9.16332 4.84716 9.1348 4.81812 9.10066 4.79699C9.06651 4.77585 9.02782 4.76323 8.98777 4.76026C8.93358 4.76288 8.88127 4.78105 8.83712 4.81266C8.28253 5.2655 7.52314 7.1869 6.90087 9.71834L7.45153 9.72533C8.53974 9.73755 9.66288 9.75109 10.7738 9.769C10.4803 8.60917 10.2061 7.61528 9.95022 6.81354C9.76755 6.14301 9.51052 5.49502 9.18384 4.88166Z" fill="var(--fill-0, white)"/>
<path id="Vector_2" d="M10.4197 0C4.66507 0 0 4.85415 0 10.8419C0 16.8297 4.66507 21.683 10.4197 21.683C16.1742 21.683 20.8393 16.8293 20.8393 10.8419C20.8393 4.85458 16.1738 0 10.4197 0ZM17.91 11.038L17.9074 11.0406C17.8965 11.0493 17.8852 11.059 17.8729 11.0672L17.8616 11.076L17.8371 11.0908C17.8297 11.0957 17.8219 11.1003 17.814 11.1044C17.7356 11.1476 17.6476 11.1703 17.5581 11.1703H12.6201C12.6603 11.3402 12.7035 11.5336 12.7511 11.7441C13.0214 12.9603 13.7397 16.1908 14.5031 16.1908H14.5424C15.1393 16.1908 15.4432 15.2939 16.11 13.3288L16.1183 13.3044C16.2258 12.9886 16.3463 12.6328 16.4777 12.2563L16.5109 12.1598C16.5298 12.1077 16.5663 12.0638 16.6142 12.0359C16.6621 12.008 16.7183 11.9977 16.7729 12.007C16.8282 12.0184 16.8779 12.0485 16.9136 12.0923C16.9493 12.136 16.9689 12.1907 16.969 12.2472C16.969 12.2712 16.9656 12.2952 16.959 12.3183L16.931 12.4148C16.8616 12.6489 16.7878 12.9677 16.7022 13.3362C16.3048 15.0507 15.7039 17.6402 14.1633 17.6402H14.152C13.1568 17.6319 12.5624 15.976 12.3066 15.2686C11.8306 13.9467 11.4694 12.5371 11.1236 11.1729H6.5821L5.63886 14.3118L5.62445 14.3004C5.57114 14.3903 5.48943 14.46 5.39218 14.4983C5.29493 14.5367 5.18769 14.5416 5.08734 14.5122C4.98616 14.48 4.89795 14.4164 4.8355 14.3305C4.77301 14.2447 4.73965 14.1411 4.74017 14.0349V14.0179L4.79738 13.6629C4.92838 12.8563 5.08341 12.0179 5.26201 11.1712H3.34716L3.34017 11.1638C3.16908 11.1309 3.01452 11.0402 2.90244 10.9068C2.79037 10.7734 2.72762 10.6055 2.72476 10.4314C2.72189 10.2572 2.77907 10.0873 2.88669 9.95026C2.99431 9.81328 3.1458 9.71751 3.31572 9.67904C3.39009 9.67074 3.46493 9.66755 3.53974 9.66943H3.63319C4.24148 9.68035 4.88865 9.68996 5.59389 9.69913C6.59389 5.46594 7.75546 3.31441 9.0428 3.31004C10.4231 3.31004 11.4472 6.58122 12.2664 9.78079L12.2699 9.79389C13.9546 9.82926 15.7498 9.88122 17.4948 10.0122L17.5681 10.0192C17.5961 10.02 17.6239 10.0224 17.6515 10.0266H17.6751C17.7799 10.0498 17.8759 10.1024 17.9518 10.1783C18.0277 10.2542 18.0803 10.3502 18.1035 10.455C18.1281 10.5606 18.1231 10.6709 18.089 10.7738C18.0548 10.8767 17.9929 10.9681 17.91 11.038Z" fill="var(--fill-0, white)"/>
<path id="Vector_3" d="M26.621 13.5541L25.7952 15.6782H23.3956L27.9611 4.58646H30.0804L34.631 15.6782H32.2454L31.4192 13.5541H26.621ZM29.0039 7.39258L27.4459 11.4306H30.5934L29.0039 7.39258Z" fill="var(--fill-0, white)"/>
<path id="Vector_4" d="M48.1563 11.4144V15.6782H45.99V11.6083C45.99 10.376 45.414 9.71135 44.4 9.71135C44.1127 9.72432 43.8332 9.80996 43.5881 9.96026C43.3429 10.1106 43.1398 10.3206 42.9978 10.5707C43.0345 10.8504 43.0549 11.132 43.059 11.414V15.6777H40.8948V11.6079C40.8948 10.3755 40.3175 9.71092 39.2895 9.71092C39.0148 9.73961 38.7511 9.83393 38.5205 9.98594C38.2899 10.1379 38.0993 10.3431 37.9646 10.5843V15.676H35.7987V7.91179H37.9646V8.38253C38.202 8.13786 38.4893 7.94725 38.807 7.82371C39.1248 7.70022 39.4654 7.64668 39.8057 7.66681C40.2604 7.66013 40.7108 7.75576 41.1236 7.94659C41.5363 8.13747 41.901 8.41869 42.1904 8.76943C42.5372 8.4024 42.9588 8.11406 43.4266 7.92384C43.8943 7.73367 44.3978 7.64598 44.9022 7.66681C46.7227 7.66681 48.1563 9.1441 48.1563 11.4144Z" fill="var(--fill-0, white)"/>
<path id="Vector_5" d="M57.6769 11.8031C57.6769 14.0568 56.0249 15.8402 53.9681 15.8402C53.2157 15.8551 52.4764 15.6403 51.8489 15.2245V19.424H49.683V7.91135H51.8489V8.3655C52.4764 7.94961 53.2157 7.73485 53.9681 7.74978C56.0266 7.74978 57.6769 9.51703 57.6769 11.8031ZM55.5428 11.8031C55.5747 11.3583 55.4581 10.9155 55.2114 10.5441C54.9646 10.1728 54.6013 9.89384 54.179 9.751C53.7568 9.60821 53.2987 9.60965 52.8773 9.75506C52.4555 9.90048 52.0943 10.1817 51.8498 10.5546V13.0362C52.0463 13.3194 52.31 13.5492 52.6175 13.7049C52.9249 13.8607 53.2659 13.9375 53.6105 13.9284C53.8773 13.9166 54.1389 13.8521 54.3808 13.7387C54.6223 13.6254 54.8393 13.4653 55.0188 13.2678C55.1983 13.0702 55.3371 12.8391 55.4271 12.5877C55.5166 12.3363 55.5563 12.0696 55.5428 11.8031Z" fill="var(--fill-0, white)"/>
<path id="Vector_6" d="M61.0594 15.6782H58.8934V4.16638H61.0594V15.6782Z" fill="var(--fill-0, white)"/>
<path id="Vector_7" d="M63.0079 5.17162C63.0035 4.9979 63.0336 4.82502 63.0969 4.66319C63.1603 4.5014 63.2555 4.35389 63.3769 4.22942C63.4983 4.10496 63.6432 4.00604 63.8031 3.93849C63.9633 3.87095 64.1354 3.83615 64.3092 3.83615C64.483 3.83615 64.655 3.87095 64.8153 3.93849C64.9751 4.00604 65.1201 4.10496 65.2415 4.22942C65.3629 4.35389 65.4581 4.5014 65.5214 4.66319C65.5847 4.82502 65.6149 4.9979 65.6105 5.17162C65.6105 5.51672 65.4734 5.84773 65.2293 6.09179C64.9852 6.33581 64.6542 6.47293 64.3092 6.47293C63.9642 6.47293 63.6332 6.33581 63.3891 6.09179C63.145 5.84773 63.0079 5.51672 63.0079 5.17162ZM65.4074 7.91135V15.6782H63.2415V7.91135H65.4074Z" fill="var(--fill-0, white)"/>
<path id="Vector_8" d="M73.2751 15.5651C72.6336 15.8079 71.9524 15.9287 71.2664 15.9214C69.4589 15.9214 68.2747 14.5921 68.2747 12.5817V9.80873H66.7026V7.91135H68.2747V5.1393H70.4249V7.91135H73.1205V9.8083H70.4249V12.5651C70.4065 12.7403 70.4279 12.9176 70.4873 13.0834C70.5472 13.2492 70.6437 13.3993 70.7699 13.5225C70.8961 13.6457 71.048 13.7388 71.2153 13.7947C71.3825 13.8506 71.5603 13.8679 71.7349 13.8454C72.1629 13.8295 72.5869 13.7587 72.9965 13.6349L73.2751 15.5651Z" fill="var(--fill-0, white)"/>
<path id="Vector_9" d="M81.9699 15.6782H79.8039V15.1266C79.2122 15.641 78.4537 15.9226 77.6699 15.9192C75.7048 15.9192 74.3974 14.4437 74.3974 12.1904V7.91092H76.5633V11.9808C76.5633 13.2131 77.1559 13.8786 78.1686 13.8786C78.4965 13.8484 78.8135 13.7454 79.0965 13.5771C79.3799 13.4087 79.6218 13.1794 79.8048 12.9057V7.91135H81.9707L81.9699 15.6782Z" fill="var(--fill-0, white)"/>
<path id="Vector_10" d="M91.1642 15.6786H88.9983V15.2249C88.3707 15.6406 87.6319 15.8554 86.8795 15.8406C84.8223 15.8406 83.1555 14.0734 83.1555 11.7873C83.1555 9.53362 84.8223 7.75022 86.8795 7.75022C87.6319 7.73537 88.3712 7.95017 88.9987 8.36594V4.16638H91.1646L91.1642 15.6786ZM88.9983 13.0362V10.5541C88.8017 10.2709 88.538 10.041 88.2306 9.88524C87.9231 9.72948 87.5817 9.65275 87.2371 9.66201C86.9699 9.67231 86.7079 9.73572 86.4655 9.84852C86.2231 9.96131 86.0057 10.1212 85.8258 10.319C85.6459 10.5167 85.5074 10.7482 85.4179 11.0001C85.3284 11.252 85.2904 11.5192 85.3052 11.786C85.3052 12.9376 86.1004 13.9432 87.2371 13.9432C87.5834 13.9529 87.9266 13.8748 88.2345 13.7161C88.5424 13.5574 88.8052 13.3238 88.9983 13.0362Z" fill="var(--fill-0, white)"/>
<path id="Vector_11" d="M99.9528 12.3712H94.4507C94.5018 12.8384 94.7314 13.2679 95.0917 13.5699C95.452 13.872 95.9148 14.0234 96.3838 13.9926C96.6275 14.019 96.8734 13.9786 97.0956 13.8757C97.3179 13.7728 97.5079 13.6114 97.6454 13.4087H99.9052C99.5 14.9004 98.0978 15.9218 96.3367 15.9218C93.9371 15.9218 92.3166 14.1227 92.3166 11.8039C92.3166 9.40218 93.9218 7.66681 96.2751 7.66681C98.4092 7.66681 99.9991 9.23886 99.9991 11.6406C100.003 11.8854 99.9869 12.1301 99.9524 12.3725L99.9528 12.3712ZM94.4673 11.041H97.8493C97.7236 10.0686 97.1629 9.53362 96.2904 9.53362C95.8537 9.51511 95.4262 9.65891 95.0895 9.93729C94.7528 10.2157 94.531 10.6089 94.4673 11.041Z" fill="var(--fill-0, white)"/>
</g>
</svg>
