<svg preserveAspectRatio="none" width="100%" height="100%" overflow="visible" style="display: block;" viewBox="0 0 66.2738 20.6292" fill="none" xmlns="http://www.w3.org/2000/svg">
<path id="Vector" fill-rule="evenodd" clip-rule="evenodd" d="M53.6678 4.68157C53.3648 4.68143 53.0742 4.80174 52.8599 5.01605C52.6456 5.23034 52.525 5.52108 52.5249 5.82429C52.5247 6.12751 52.645 6.41835 52.859 6.63285C53.0732 6.84737 53.3637 6.96796 53.6667 6.9681C53.9698 6.9681 54.2604 6.8476 54.4749 6.63309C54.6892 6.41857 54.8096 6.12765 54.8096 5.82429C54.8096 5.52093 54.6892 5.23 54.4749 5.0155C54.2604 4.80098 53.9698 4.68047 53.6667 4.68047L53.6678 4.68157ZM54.4552 7.84829H52.8627C52.8319 7.84859 52.8024 7.86107 52.7806 7.88303C52.7588 7.905 52.7466 7.93466 52.7466 7.96558V14.9216C52.7466 14.9873 52.7982 15.0389 52.8627 15.0389H54.4563C54.4874 15.0389 54.5172 15.0266 54.5392 15.0045C54.5611 14.9826 54.5735 14.9528 54.5735 14.9216V7.96558C54.5735 7.93448 54.5611 7.90464 54.5392 7.88265C54.5172 7.86064 54.4874 7.84829 54.4563 7.84829H54.4552ZM57.9972 7.85487V7.63564C57.9972 6.98673 58.2458 6.69735 58.8033 6.69735C59.1352 6.69735 59.4014 6.76312 59.7014 6.86397C59.719 6.86994 59.7378 6.87158 59.7562 6.86879C59.7746 6.86598 59.7921 6.85878 59.8071 6.84783C59.822 6.83687 59.8342 6.82247 59.8425 6.80582C59.8508 6.78916 59.855 6.77077 59.8547 6.75216V5.4094C59.8546 5.3843 59.8466 5.35991 59.8316 5.33978C59.8165 5.31966 59.7956 5.30486 59.7716 5.2976C59.3422 5.16633 58.8952 5.10199 58.4462 5.10687C56.9754 5.10687 56.1977 5.93664 56.1977 7.5052V7.84281H55.4321C55.4014 7.84281 55.3717 7.85502 55.3496 7.87678C55.3277 7.89853 55.3154 7.92808 55.3149 7.959V9.33684C55.3149 9.40151 55.3676 9.45412 55.4321 9.45412H56.1977V14.9238C56.1977 14.9873 56.2492 15.04 56.3138 15.04H57.9074C57.9383 15.0398 57.9679 15.0273 57.9896 15.0053C58.0113 14.9833 58.0235 14.9536 58.0235 14.9227V9.45303H59.5109L61.7901 14.9227C61.5315 15.4961 61.2775 15.6112 60.9302 15.6112C60.6489 15.6112 60.3531 15.5267 60.0508 15.3612C60.0369 15.3537 60.0216 15.3491 60.0057 15.3475C59.9899 15.346 59.9739 15.3477 59.9587 15.3524C59.9436 15.3576 59.9295 15.3659 59.9176 15.3769C59.9058 15.3879 59.8962 15.4012 59.8897 15.416L59.3498 16.6009C59.3373 16.6276 59.3353 16.6582 59.3446 16.6863C59.3538 16.7145 59.3733 16.7379 59.3991 16.7521C59.9632 17.058 60.4725 17.1885 61.1011 17.1885C62.2775 17.1885 62.928 16.6404 63.5008 15.1639L66.2651 8.0149C66.2724 7.9972 66.2751 7.97797 66.2731 7.95894C66.2712 7.93992 66.2644 7.92168 66.2538 7.90585C66.2431 7.89002 66.2286 7.87707 66.2116 7.86819C66.1947 7.8593 66.1759 7.85471 66.1568 7.85487H64.4985C64.4744 7.85512 64.4509 7.86284 64.4314 7.87697C64.4117 7.8911 64.3969 7.91094 64.3891 7.93379L62.6892 12.7907L60.8273 7.9305C60.8191 7.90835 60.8043 7.88926 60.7849 7.87574C60.7655 7.86222 60.7425 7.85494 60.7189 7.85487H57.9972ZM51.8891 7.84829H50.1367V6.05393C50.1367 6.03858 50.1336 6.02338 50.1277 6.00921C50.1218 5.99504 50.1132 5.98219 50.1023 5.97138C50.0915 5.96057 50.0785 5.95204 50.0643 5.94627C50.0501 5.94049 50.0348 5.9376 50.0195 5.93774H48.4259C48.3953 5.93802 48.3659 5.95036 48.3441 5.97208C48.3225 5.99381 48.3101 6.02321 48.3098 6.05393V7.84829H47.5432C47.5279 7.84829 47.5126 7.85133 47.4985 7.85724C47.4843 7.86315 47.4716 7.8718 47.4607 7.88271C47.4499 7.89361 47.4413 7.90656 47.4356 7.92078C47.4298 7.935 47.427 7.95023 47.4272 7.96558V9.33574C47.4272 9.40041 47.4797 9.45303 47.5432 9.45303H48.3098V12.9979C48.3098 14.4317 49.0217 15.1572 50.428 15.1572C50.9997 15.1572 51.4729 15.04 51.9197 14.7868C51.9379 14.7767 51.9528 14.7618 51.9632 14.7439C51.9736 14.726 51.979 14.7056 51.9789 14.6849V13.3805C51.9792 13.3604 51.9743 13.3407 51.9647 13.3232C51.9552 13.3056 51.9412 13.2908 51.9242 13.2802C51.9072 13.2696 51.8878 13.2636 51.8679 13.2627C51.8479 13.2619 51.8281 13.2662 51.8103 13.2752C51.5036 13.4298 51.2067 13.501 50.8749 13.501C50.3634 13.501 50.1356 13.2698 50.1356 12.7491V9.45303H51.888C51.9034 9.45317 51.9188 9.45024 51.933 9.4444C51.9473 9.43855 51.9602 9.42992 51.9712 9.419C51.9821 9.40808 51.9907 9.3951 51.9966 9.38079C52.0024 9.3665 52.0053 9.35118 52.0052 9.33574V7.96558C52.0053 7.95023 52.0024 7.935 51.9966 7.92078C51.9908 7.90656 51.9824 7.89361 51.9716 7.88271C51.9608 7.8718 51.948 7.86315 51.9338 7.85724C51.9196 7.85133 51.9044 7.84829 51.8891 7.84829ZM43.4876 7.70251C41.3408 7.70251 39.6574 9.35766 39.6574 11.4699C39.6574 13.5602 41.3289 15.1967 43.4613 15.1967C45.6156 15.1967 47.3034 13.5482 47.3034 11.4436C47.3034 9.34561 45.6277 7.70251 43.4876 7.70251ZM43.4876 13.58C42.3452 13.58 41.4832 12.6614 41.4832 11.4425C41.4832 10.2203 42.3157 9.33355 43.4613 9.33355C44.6112 9.33355 45.4765 10.2521 45.4765 11.471C45.4765 12.6932 44.6409 13.58 43.4876 13.58ZM35.8055 7.70251C34.9074 7.70251 34.1714 8.05656 33.5646 8.7811V7.96558C33.5646 7.93466 33.5525 7.905 33.5308 7.88303C33.509 7.86107 33.4795 7.84859 33.4485 7.84829H31.8549C31.8242 7.84859 31.7947 7.86107 31.7729 7.88303C31.7511 7.905 31.7389 7.93466 31.7389 7.96558V17.0306C31.7389 17.0942 31.7914 17.1467 31.8549 17.1467H33.4485C33.4793 17.1464 33.5087 17.1342 33.5303 17.1124C33.5521 17.0907 33.5643 17.0613 33.5646 17.0306V14.1697C34.1726 14.8503 34.9085 15.1835 35.8055 15.1835C37.4725 15.1835 39.1602 13.8989 39.1602 11.4436C39.1602 8.98827 37.4736 7.70251 35.8055 7.70251ZM37.3082 11.4436C37.3082 12.6932 36.5382 13.5668 35.4365 13.5668C34.3467 13.5668 33.5253 12.6537 33.5253 11.4436C33.5253 10.2335 34.3467 9.3204 35.4365 9.3204C36.5207 9.3204 37.3093 10.2126 37.3093 11.4436H37.3082ZM28.0688 9.4596C26.2901 9.03431 25.9736 8.73616 25.9736 8.11027C25.9736 7.51836 26.53 7.12046 27.358 7.12046C28.1597 7.12046 28.956 7.4219 29.7894 8.0445C29.8018 8.05369 29.8159 8.06032 29.8309 8.06402C29.8459 8.06773 29.8615 8.06843 29.8767 8.06608C29.892 8.06374 29.9066 8.0584 29.9198 8.05037C29.9331 8.04234 29.9446 8.03178 29.9537 8.01929L30.8233 6.79272C30.8402 6.76849 30.8473 6.73877 30.8433 6.7095C30.8392 6.68024 30.8242 6.65359 30.8014 6.63488C29.8091 5.83689 28.6909 5.44996 27.3843 5.44996C25.4621 5.44996 24.1205 6.60309 24.1205 8.25496C24.1205 10.0252 25.2782 10.6522 27.2792 11.1356C28.9811 11.528 29.2692 11.8568 29.2692 12.4455C29.2692 13.0966 28.6887 13.501 27.7522 13.501C26.7139 13.501 25.8674 13.1503 24.9188 12.3304C24.8951 12.3102 24.8646 12.3 24.8334 12.3019C24.8179 12.3031 24.8029 12.3074 24.7893 12.3145C24.7755 12.3217 24.7633 12.3315 24.7534 12.3435L23.7787 13.5032C23.7589 13.5263 23.7489 13.5564 23.7512 13.5868C23.7534 13.6173 23.7677 13.6455 23.7908 13.6655C24.8647 14.6393 26.2637 15.1761 27.7128 15.1705C29.7828 15.1705 31.1212 14.0382 31.1212 12.2865C31.1212 10.8057 30.2373 9.98684 28.0688 9.45851V9.4596ZM10.3062 0C7.57281 0 4.9514 1.08671 3.01862 3.02107C1.08583 4.95544 0 7.57898 0 10.3146C0 13.0502 1.08583 15.6737 3.01862 17.6081C4.9514 19.5425 7.57281 20.6292 10.3062 20.6292C13.0396 20.6292 15.661 19.5425 17.5937 17.6081C19.5266 15.6737 20.6124 13.0502 20.6124 10.3146C20.6124 7.57898 19.5266 4.95544 17.5937 3.02107C15.661 1.08671 13.0396 0 10.3062 0ZM15.0333 14.8767C14.9893 14.949 14.9317 15.0118 14.8634 15.0617C14.7952 15.1114 14.7178 15.1474 14.6357 15.1672C14.5535 15.187 14.4683 15.1906 14.3849 15.1773C14.3014 15.1641 14.2214 15.1346 14.1493 15.0905C11.7289 13.6106 8.68415 13.2763 5.09615 14.0962C5.01394 14.1151 4.92885 14.1175 4.84572 14.1033C4.7626 14.0892 4.68308 14.0587 4.61169 14.0139C4.54028 13.9691 4.47842 13.9105 4.42963 13.8417C4.38082 13.7729 4.34606 13.6951 4.32728 13.6128C4.30852 13.5306 4.30612 13.4454 4.32023 13.3622C4.33435 13.279 4.36471 13.1994 4.40955 13.128C4.45441 13.0565 4.51288 12.9946 4.58163 12.9458C4.65039 12.8969 4.72809 12.8621 4.81028 12.8434C8.73562 11.9445 12.1035 12.3315 14.8197 13.9932C15.1219 14.1785 15.2172 14.5742 15.0333 14.8767ZM16.2927 12.0684C16.1813 12.2499 16.0025 12.3797 15.7955 12.4294C15.5886 12.4791 15.3704 12.4447 15.1887 12.3337C12.4189 10.6292 8.19567 10.1359 4.91872 11.1312C4.71933 11.1785 4.50942 11.148 4.33177 11.0458C4.15411 10.9436 4.02208 10.7775 3.96258 10.5812C3.90308 10.385 3.9206 10.1734 4.01157 9.98965C4.10253 9.8059 4.2601 9.66377 4.45214 9.59224C8.19567 8.45555 12.8482 9.0069 16.0288 10.9624C16.1189 11.0176 16.1971 11.0901 16.2593 11.1757C16.3214 11.2612 16.3661 11.3581 16.3906 11.461C16.4152 11.5638 16.4193 11.6705 16.4027 11.7749C16.3861 11.8793 16.3492 11.9794 16.2938 12.0695L16.2927 12.0684ZM16.4034 9.14392C13.0804 7.16979 7.59985 6.98783 4.42914 7.95242C4.30747 7.99127 4.17929 8.00553 4.05206 7.99436C3.92482 7.9832 3.80107 7.94684 3.68801 7.8874C3.57494 7.82796 3.4748 7.7466 3.39342 7.64809C3.31204 7.54958 3.25104 7.43587 3.21395 7.31355C3.17687 7.19123 3.16443 7.06276 3.1774 6.93559C3.19036 6.80843 3.22844 6.68511 3.28943 6.5728C3.35042 6.46049 3.43311 6.36145 3.53269 6.2814C3.63227 6.20136 3.74674 6.14193 3.86948 6.10654C7.50896 4.99945 13.5612 5.21429 17.3848 7.48547C17.6045 7.616 17.7636 7.8286 17.827 8.07653C17.8902 8.32443 17.8524 8.58734 17.722 8.80741C17.5916 9.02748 17.3791 9.18668 17.1315 9.24999C16.8838 9.31331 16.6211 9.27554 16.4012 9.14501" fill="var(--fill-0, white)"/>
</svg>
