<svg preserveAspectRatio="none" width="100%" height="100%" overflow="visible" style="display: block;" viewBox="0 0 121.918 16.7442" fill="none" xmlns="http://www.w3.org/2000/svg">
<path id="Vector" d="M7.84561 0.2275C9.45702 0.2275 10.7114 0.63 11.6088 1.43325C12.5211 2.22163 12.9772 3.283 12.9772 4.61825C12.9772 5.362 12.8018 6.006 12.4526 6.552C12.1026 7.08227 11.593 7.49964 10.9246 7.80327V7.89427C11.7456 8.21277 12.3842 8.69052 12.8404 9.32752C13.2965 9.96452 13.5246 10.7538 13.5246 11.6935C13.5246 13.1793 13.0526 14.3474 12.1105 15.197C11.1825 16.0458 9.86754 16.471 8.16491 16.471H0V0.2275H7.84561ZM7.20702 6.93877C7.96667 6.93877 8.54473 6.76375 8.94035 6.4155C9.35087 6.06638 9.55614 5.56675 9.55614 4.914C9.55614 4.26125 9.35087 3.76075 8.94035 3.4125C8.54473 3.0485 7.96667 2.8665 7.20702 2.8665H3.42105V6.93877H7.20702ZM7.4807 13.7638C8.31667 13.7638 8.94737 13.5739 9.37368 13.195C9.81404 12.8013 10.0351 12.2544 10.0351 11.557C10.0351 10.8588 9.81404 10.3206 9.37368 9.94177C8.94737 9.54802 8.31667 9.35027 7.4807 9.35027H3.42105V13.7638H7.4807ZM18.0474 0V16.471H14.8544V0H18.0474ZM25.5263 4.1405C26.7728 4.1405 27.8596 4.39775 28.7877 4.914C29.7064 5.4206 30.4528 6.18891 30.9316 7.12077C31.4333 8.07627 31.6842 9.19102 31.6842 10.465C31.6842 11.739 31.4333 12.8538 30.9316 13.8093C30.4475 14.7315 29.7019 15.4911 28.7877 15.9933C27.8596 16.4938 26.7728 16.744 25.5263 16.744C24.264 16.744 23.1614 16.4938 22.2193 15.9933C21.3052 15.4911 20.5595 14.7315 20.0754 13.8093C19.5886 12.8538 19.3456 11.739 19.3456 10.465C19.3456 9.17527 19.5886 8.06052 20.0754 7.12077C20.5542 6.18888 21.3006 5.42056 22.2193 4.914C23.1614 4.39775 24.264 4.1405 25.5263 4.1405ZM25.5263 14.3553C26.4228 14.3553 27.1298 14.021 27.6474 13.3543C28.1649 12.6866 28.4228 11.7233 28.4228 10.465C28.4228 9.19102 28.164 8.21977 27.6474 7.55302C27.1298 6.87052 26.4228 6.52925 25.5263 6.52925C24.614 6.52925 23.8912 6.87052 23.3596 7.55302C22.8421 8.21977 22.5842 9.19102 22.5842 10.465C22.5842 11.7233 22.8421 12.6875 23.3596 13.3543C23.8912 14.021 24.614 14.3553 25.5263 14.3553ZM39.1465 14.378C40.5149 14.378 41.3974 13.5966 41.7921 12.0348L45.0079 12.3988C44.7044 13.5975 44.0807 14.6213 43.1377 15.47C42.1956 16.3188 40.8649 16.744 39.1465 16.744C37.9149 16.744 36.843 16.4938 35.9307 15.9933C35.0296 15.4891 34.2991 14.7288 33.8325 13.8093C33.3465 12.8538 33.1026 11.739 33.1026 10.465C33.1026 9.19102 33.3465 8.07627 33.8325 7.12077C34.2939 6.19168 35.025 5.42272 35.9307 4.914C36.843 4.39775 37.9149 4.1405 39.1465 4.1405C40.8193 4.1405 42.1114 4.53425 43.0237 5.3235C43.936 6.11188 44.5368 6.98427 44.8254 7.93977L41.7237 8.64502C41.2833 7.23452 40.4237 6.52925 39.1465 6.52925C38.2798 6.52925 37.5956 6.87052 37.0939 7.55302C36.5921 8.21977 36.3412 9.19102 36.3412 10.465C36.3412 11.7233 36.5921 12.6945 37.0939 13.377C37.5956 14.0438 38.2798 14.378 39.1465 14.378ZM49.2658 16.471H46.0728V0H49.2658V9.10002L53.6219 4.43625H57.2939L52.7781 9.05452L57.8184 16.471H54.1018L50.6123 11.1703L49.2667 12.558V16.471H49.2658ZM68.3308 4.6865H68.2396L65.7992 16.471H61.6483L57.7254 0.2275H61.2378L63.7694 12.3988H63.8606L66.3466 0.2275H70.1782L72.6641 12.3988H72.7554L75.3097 0.2275H78.8448L74.922 16.471H70.8168L68.3308 4.6865ZM86.9624 16.471C86.8562 16.3494 86.7729 16.1446 86.7115 15.8568C86.6466 15.5041 86.6159 15.146 86.6203 14.7875C86.2861 15.4088 85.7466 15.8944 85.001 16.2435C84.2562 16.5804 83.4466 16.7512 82.629 16.744C81.936 16.7487 81.251 16.601 80.622 16.3118C80.0299 16.0366 79.5194 15.6133 79.1396 15.0833C78.7746 14.5373 78.5922 13.9003 78.5922 13.1723C78.5922 11.9438 79.0106 11.0338 79.8466 10.4423C80.6834 9.85077 81.9378 9.45614 83.6097 9.25927C84.7659 9.10702 85.5483 8.94077 85.9589 8.75877C86.3852 8.56102 86.5975 8.27314 86.5975 7.89427C86.5975 7.43927 86.4229 7.08227 86.0729 6.825C85.7238 6.552 85.1992 6.4155 84.4992 6.4155C83.922 6.4155 83.4045 6.56687 82.9483 6.87052C82.508 7.17327 82.1957 7.62127 82.0132 8.21277L79.0711 7.75777C79.3299 6.63512 79.9536 5.75575 80.9413 5.11875C81.9299 4.466 83.1387 4.1405 84.5676 4.1405C86.3168 4.1405 87.6238 4.48875 88.4904 5.187C89.3571 5.88437 89.7904 6.832 89.7904 8.03077V14.0595C89.7904 14.7569 89.8062 15.2801 89.8361 15.6293C89.8817 15.9626 89.9729 16.2435 90.1097 16.471H86.9624ZM86.5975 10.5333C86.415 10.6846 86.1036 10.8133 85.6624 10.92C85.2369 11.011 84.6747 11.102 83.9747 11.193C83.3361 11.2989 82.8194 11.5036 82.4238 11.8073C82.0439 12.096 81.8536 12.5046 81.8536 13.0358C81.8536 13.5205 82.0062 13.9003 82.3097 14.1733C82.629 14.4305 83.0624 14.56 83.6097 14.56C84.0817 14.56 84.5448 14.4611 85.001 14.2643C85.4571 14.0665 85.8378 13.7638 86.1413 13.3543C86.4457 12.929 86.5975 12.4058 86.5975 11.7845V10.5333ZM94.8475 0V16.471H91.6545V0H94.8475ZM99.9878 0V16.471H96.7948V0H99.9878ZM113.476 12.8993C113.188 13.9458 112.564 14.8479 111.606 15.6065C110.648 16.3643 109.303 16.744 107.569 16.744C106.338 16.744 105.266 16.4938 104.354 15.9933C103.453 15.489 102.722 14.7287 102.255 13.8093C101.769 12.8538 101.526 11.739 101.526 10.465C101.526 9.17527 101.761 8.06052 102.233 7.12077C102.719 6.16525 103.411 5.42938 104.308 4.914C105.22 4.39775 106.3 4.1405 107.547 4.1405C108.748 4.1405 109.804 4.38288 110.717 4.8685C111.629 5.35325 112.336 6.07425 112.838 7.02977C113.34 7.96952 113.59 9.10002 113.59 10.4195C113.59 10.7223 113.583 10.9576 113.568 11.1248H104.764C104.795 12.1406 105.061 12.9596 105.562 13.5818C106.064 14.1881 106.733 14.4918 107.569 14.4918C108.361 14.4918 108.961 14.3098 109.371 13.9458C109.782 13.566 110.063 13.1268 110.215 12.6263L113.476 12.8993ZM107.547 6.37C106.741 6.37 106.095 6.62725 105.608 7.14352C105.137 7.65977 104.871 8.30377 104.81 9.07727H110.306C110.246 8.28802 109.972 7.64402 109.485 7.14352C109.014 6.62725 108.368 6.37 107.547 6.37ZM121.826 13.9913V16.471C121.401 16.5008 120.701 16.5165 119.728 16.5165C118.861 16.5165 118.177 16.4404 117.676 16.289C117.174 16.1228 116.801 15.834 116.558 15.4245C116.315 15.0001 116.193 14.3929 116.193 13.6045V6.57475H114.277V4.43625H116.193V1.06925H119.386V4.43625H121.918V6.57475H119.386V12.8083C119.386 13.3088 119.485 13.6343 119.683 13.7865C119.896 13.923 120.268 13.9913 120.8 13.9913H121.826Z" fill="var(--fill-0, white)"/>
</svg>
