<svg preserveAspectRatio="none" width="100%" height="100%" overflow="visible" style="display: block;" viewBox="0 0 14.4948 15.1343" fill="none" xmlns="http://www.w3.org/2000/svg">
<path id="Vector" fill-rule="evenodd" clip-rule="evenodd" d="M8.80883 14.708L11.8459 15.1126C13.7669 15.3684 15.1457 13.3087 14.1768 11.6305L8.13521 1.16761C7.16629 -0.510403 4.69275 -0.346414 3.95398 1.44488L2.7859 4.27703C3.18125 4.5543 3.52995 4.92599 3.80054 5.3945L8.34825 13.2702C8.61878 13.7389 8.76627 14.2269 8.80883 14.708ZM7.63479 14.5516C7.58576 14.3118 7.49649 14.0721 7.36215 13.8394L2.81457 5.9637C2.6803 5.73117 2.51735 5.53406 2.33421 5.3719L0.17795 10.5999C-0.40629 12.0166 0.509451 13.6023 2.02845 13.8047L7.63479 14.5516Z" fill="var(--fill-0, white)"/>
</svg>
