<svg preserveAspectRatio="none" width="100%" height="100%" overflow="visible" style="display: block;" viewBox="0 0 12.2167 13.4052" fill="none" xmlns="http://www.w3.org/2000/svg">
<path id="Vector" d="M8.62575 9.45004C8.13288 10.2204 7.182 10.6752 6.12549 10.6752C4.47174 10.6752 3.09823 9.55504 3.09823 7.84018H12.0409C12.182 7.31518 12.2167 7.07043 12.2167 6.61504C12.2167 2.69521 9.78736 0 6.12612 0C2.53449 0 0 2.55544 0 6.72004C0 10.7802 2.42886 13.4052 6.19637 13.4052C8.83712 13.4052 11.1609 12.1104 11.8296 9.45004H8.62575ZM6.12549 2.73C7.7805 2.73 9.04838 3.78 9.01299 5.355H3.13299C3.13299 3.81544 4.47174 2.73 6.12549 2.73Z" fill="var(--fill-0, white)"/>
</svg>
